<?xml version="1.0" encoding="UTF-8" standalone="no"?>
<svg
   xmlns:dc="http://purl.org/dc/elements/1.1/"
   xmlns:cc="http://creativecommons.org/ns#"
   xmlns:rdf="http://www.w3.org/1999/02/22-rdf-syntax-ns#"
   xmlns:svg="http://www.w3.org/2000/svg"
   xmlns="http://www.w3.org/2000/svg"
   xmlns:sodipodi="http://sodipodi.sourceforge.net/DTD/sodipodi-0.dtd"
   xmlns:inkscape="http://www.inkscape.org/namespaces/inkscape"
   width="150mm"
   height="150mm"
   viewBox="0 0 150 150"
   version="1.1"
   id="svg8"
   inkscape:version="1.0.2 (e86c8708, 2021-01-15)"
   sodipodi:docname="kitty.svg"
   inkscape:export-filename="/Users/Adolfo/dev/adolfohw.dev/kitty.png"
   inkscape:export-xdpi="96"
   inkscape:export-ydpi="96">
  <defs
     id="defs2" />
  <sodipodi:namedview
     id="base"
     pagecolor="#ffffff"
     bordercolor="#666666"
     borderopacity="1.0"
     inkscape:pageopacity="0.0"
     inkscape:pageshadow="2"
     inkscape:zoom="0.4206251"
     inkscape:cx="437.77899"
     inkscape:cy="422.7529"
     inkscape:document-units="mm"
     inkscape:current-layer="g1083"
     inkscape:document-rotation="0"
     showgrid="false"
     inkscape:snap-global="true"
     inkscape:window-width="1223"
     inkscape:window-height="776"
     inkscape:window-x="129"
     inkscape:window-y="25"
     inkscape:window-maximized="0"
     inkscape:lockguides="false"
     fit-margin-top="0"
     fit-margin-left="0"
     fit-margin-right="0"
     fit-margin-bottom="0" />
  <metadata
     id="metadata5">
    <rdf:RDF>
      <cc:Work
         rdf:about="">
        <dc:format>image/svg+xml</dc:format>
        <dc:type
           rdf:resource="http://purl.org/dc/dcmitype/StillImage" />
        <dc:title></dc:title>
      </cc:Work>
    </rdf:RDF>
  </metadata>
  <g
     inkscape:groupmode="layer"
     id="layer2"
     inkscape:label="cyan"
     style="display:inline"
     transform="translate(-31.793735,-37.287428)" />
  <g
     inkscape:groupmode="layer"
     id="g168"
     inkscape:label="magenta"
     style="display:inline"
     transform="translate(-31.793735,-37.287428)" />
  <g
     inkscape:groupmode="layer"
     id="g1196"
     inkscape:label="stripes-yellow"
     style="display:inline"
     transform="translate(-31.793735,-37.287428)" />
  <g
     inkscape:groupmode="layer"
     id="layer4"
     inkscape:label="stripes"
     style="display:inline"
     transform="translate(-31.793735,-37.287428)" />
  <g
     inkscape:label="eye-left"
     inkscape:groupmode="layer"
     id="g1146"
     style="display:inline"
     transform="translate(-31.793735,-37.287428)">
    <g
       inkscape:label="cyan"
       inkscape:groupmode="layer"
       id="g1128"
       style="display:inline" />
    <g
       inkscape:label="magenta"
       inkscape:groupmode="layer"
       id="g1134"
       style="display:inline" />
    <g
       inkscape:label="purple"
       inkscape:groupmode="layer"
       id="layer1"
       style="display:inline" />
    <g
       inkscape:label="pupil"
       inkscape:groupmode="layer"
       id="g1140"
       style="display:none">
      <g
         id="g1138"
         transform="matrix(0.68418071,0,0,0.82437844,24.942261,10.746501)">
        <path
           style="fill:#ffffff;fill-opacity:1;stroke-width:0.227151"
           d="m 73.496885,123.09049 c -0.450328,0.22506 -1.175098,0.89262 -1.610598,1.48348 -1.242175,1.6853 -1.422154,2.91679 -1.338724,9.16016 0.06376,4.77149 0.105995,5.30175 0.503191,6.31781 0.828233,2.11869 2.777183,3.43968 4.588009,3.10973 1.320649,-0.24064 2.633637,-1.51347 3.251587,-3.15215 0.470625,-1.248 0.498967,-1.56805 0.560053,-6.32459 0.06958,-5.41772 -0.07033,-6.80133 -0.851407,-8.4197 -0.996195,-2.0641 -3.331616,-3.05955 -5.102111,-2.17474 z"
           id="path1136"
           sodipodi:nodetypes="sssssssss" />
      </g>
    </g>
  </g>
  <g
     inkscape:label="eye-right"
     inkscape:groupmode="layer"
     id="g1188"
     style="display:inline"
     transform="translate(-31.793735,-37.287428)">
    <g
       inkscape:label="cyan"
       inkscape:groupmode="layer"
       id="g1164"
       style="display:inline" />
    <g
       inkscape:label="magenta"
       inkscape:groupmode="layer"
       id="g1170"
       style="display:inline" />
    <g
       inkscape:label="purple"
       inkscape:groupmode="layer"
       id="g1176"
       style="display:inline" />
    <g
       inkscape:label="pupil"
       inkscape:groupmode="layer"
       id="g1182"
       style="display:none">
      <g
         id="g1180"
         transform="matrix(0.68418071,0,0,0.82437844,71.508957,10.746501)">
        <path
           style="fill:#ffffff;fill-opacity:1;stroke-width:0.227151"
           d="m 73.496885,123.09049 c -0.450328,0.22506 -1.175098,0.89262 -1.610598,1.48348 -1.242175,1.6853 -1.422154,2.91679 -1.338724,9.16016 0.06376,4.77149 0.105995,5.30175 0.503191,6.31781 0.828233,2.11869 2.777183,3.43968 4.588009,3.10973 1.320649,-0.24064 2.633637,-1.51347 3.251587,-3.15215 0.470625,-1.248 0.498967,-1.56805 0.560053,-6.32459 0.06958,-5.41772 -0.07033,-6.80133 -0.851407,-8.4197 -0.996195,-2.0641 -3.331616,-3.05955 -5.102111,-2.17474 z"
           id="path1178"
           sodipodi:nodetypes="sssssssss" />
      </g>
    </g>
  </g>
  <g
     inkscape:groupmode="layer"
     id="layer5"
     inkscape:label="fill"
     style="display:inline"
     transform="translate(-31.793735,-37.287428)">
    <path
       style="display:inline;fill:#ffda2f;fill-opacity:0.657258;stroke-width:0.229875"
       d="M 102.98253,171.27138 C 94.652559,170.49449 86.918716,167.80227 80.109977,163.30924 74.19637,159.4069 68.86078,153.89605 65.345586,148.05987 63.18066,144.4655 52.510678,124.60409 49.482326,118.53155 c -1.978239,-3.96683 -2.141622,-4.48956 -1.681398,-5.37954 0.501304,-0.96941 1.236007,-1.10414 7.022828,-1.28781 2.718268,-0.0863 4.994029,-0.20748 5.057243,-0.26934 0.06322,-0.0619 0.166658,-12.646471 0.229875,-27.965798 0.113694,-27.551906 0.120031,-27.861995 0.585713,-28.654702 0.659427,-1.122511 2.135926,-2.098464 3.388281,-2.239624 1.602081,-0.180576 0.708149,-0.671534 24.082372,13.226311 l 5.873454,3.492241 h 12.822136 12.82213 l 11.53295,-6.86368 c 16.97267,-10.101064 16.25007,-9.698805 17.66445,-9.83343 1.57016,-0.149453 3.0234,0.547632 3.89885,1.870188 l 0.60865,0.919499 0.1704,28.067611 0.1704,28.067614 3.45429,0.14951 c 1.89986,0.0822 4.44917,0.14952 5.66513,0.14952 h 2.21084 l 0.61623,0.95037 c 0.56901,0.87755 0.59239,1.00526 0.30511,1.66659 -2.61682,6.02384 -15.79218,30.75691 -18.81099,35.31237 -6.45264,9.73721 -16.74665,16.95386 -28.50974,19.98685 -4.99493,1.28789 -10.98301,1.81306 -15.679,1.37508 z M 85.741908,115.59842 c 0.567521,-0.16636 1.364345,-0.7125 2.081599,-1.42671 1.69619,-1.68898 1.82903,-2.32947 1.813327,-8.74303 -0.01418,-5.789122 -0.12999,-6.387403 -1.565217,-8.085208 -2.039093,-2.412153 -6.161492,-2.549948 -8.726987,-0.291708 -1.582854,1.393282 -1.775754,2.127848 -1.925103,7.330676 -0.192683,6.71266 0.191965,8.41886 2.300959,10.20641 1.715132,1.45371 3.490767,1.75142 6.021422,1.00957 z m 45.960782,0.1904 c 1.5482,-0.46594 2.75424,-1.37638 3.68921,-2.78496 l 0.80752,-1.2166 -0.005,-5.59297 c -0.003,-3.07614 -0.0997,-5.99913 -0.21481,-6.495532 -0.55436,-2.390359 -3.13864,-4.269626 -5.87138,-4.269626 -2.84061,0 -5.47112,2.026283 -5.88332,4.531929 -0.0995,0.604999 -0.18712,3.458479 -0.19465,6.341069 -0.0148,5.64368 0.001,5.73532 1.30924,7.45595 0.94008,1.23673 3.05852,2.32837 4.55979,2.34969 0.39081,0.006 1.20256,-0.13798 1.80389,-0.31895 z"
       id="path181" />
    <rect
       style="fill:#ffffff;fill-opacity:0.657258;stroke-width:0.353056"
       id="rect1402"
       width="47.896946"
       height="32.686432"
       x="83.528854"
       y="119.83176"
       rx="14.952042"
       ry="26.287672" />
  </g>
  <g
     inkscape:groupmode="layer"
     id="g1083"
     inkscape:label="purple"
     style="display:inline"
     transform="translate(-31.793735,-37.287428)">
    <path
       style="fill:#00ffff;fill-opacity:1;stroke-width:0.264583"
       d="m 80.464119,95.594827 c -0.610973,0.22506 -1.594292,0.89262 -2.185148,1.48348 -1.685298,1.6853 -1.92948,2.91679 -1.816288,9.160163 0.08651,4.77149 0.143806,5.30175 0.682694,6.31781 1.12369,2.11869 3.767891,3.43968 6.224695,3.10973 1.791766,-0.24064 3.573137,-1.51347 4.41153,-3.15215 0.638511,-1.248 0.676963,-1.56805 0.759841,-6.32459 0.0944,-5.41772 -0.09542,-6.801333 -1.155131,-8.419703 -1.351568,-2.0641 -4.520107,-3.05955 -6.922193,-2.17474 z"
       id="path1124"
       sodipodi:nodetypes="sssssssss" />
    <path
       style="fill:#ff00ff;fill-opacity:1;stroke-width:0.264583"
       d="m 82.580786,95.594827 c -0.610973,0.22506 -1.594292,0.89262 -2.185148,1.48348 -1.685298,1.6853 -1.92948,2.91679 -1.816288,9.160163 0.08651,4.77149 0.143806,5.30175 0.682694,6.31781 1.12369,2.11869 3.767891,3.43968 6.224695,3.10973 1.791766,-0.24064 3.573137,-1.51347 4.41153,-3.15215 0.638511,-1.248 0.676963,-1.56805 0.759841,-6.32459 0.0944,-5.41772 -0.09542,-6.801333 -1.155131,-8.419703 -1.351568,-2.0641 -4.520107,-3.05955 -6.922193,-2.17474 z"
       id="path1130"
       sodipodi:nodetypes="sssssssss" />
    <path
       style="fill:#642868;fill-opacity:1;stroke-width:0.264583"
       d="m 81.522453,95.594827 c -0.610973,0.22506 -1.594292,0.89262 -2.185148,1.48348 -1.685298,1.6853 -1.92948,2.91679 -1.816288,9.160163 0.08651,4.77149 0.143806,5.30175 0.682694,6.31781 1.12369,2.11869 3.767891,3.43968 6.224695,3.10973 1.791766,-0.24064 3.573137,-1.51347 4.41153,-3.15215 0.638511,-1.248 0.676963,-1.56805 0.759841,-6.32459 0.0944,-5.41772 -0.09542,-6.801333 -1.155131,-8.419703 -1.351568,-2.0641 -4.520107,-3.05955 -6.922193,-2.17474 z"
       id="path60"
       sodipodi:nodetypes="sssssssss" />
    <path
       style="fill:#00ffff;fill-opacity:1;stroke-width:0.264583"
       d="m 127.03082,95.594827 c -0.61097,0.22506 -1.59429,0.89262 -2.18515,1.48348 -1.6853,1.6853 -1.92948,2.91679 -1.81629,9.160163 0.0865,4.77149 0.14381,5.30175 0.6827,6.31781 1.12369,2.11869 3.76789,3.43968 6.22469,3.10973 1.79177,-0.24064 3.57314,-1.51347 4.41153,-3.15215 0.63851,-1.248 0.67697,-1.56805 0.75984,-6.32459 0.0944,-5.41772 -0.0954,-6.801333 -1.15513,-8.419703 -1.35156,-2.0641 -4.5201,-3.05955 -6.92219,-2.17474 z"
       id="path1160"
       sodipodi:nodetypes="sssssssss" />
    <path
       style="fill:#ff00ff;fill-opacity:1;stroke-width:0.264583"
       d="m 129.14749,95.594827 c -0.61098,0.22506 -1.59429,0.89262 -2.18515,1.48348 -1.6853,1.6853 -1.92948,2.91679 -1.81629,9.160163 0.0865,4.77149 0.14381,5.30175 0.68269,6.31781 1.1237,2.11869 3.7679,3.43968 6.2247,3.10973 1.79177,-0.24064 3.57314,-1.51347 4.41153,-3.15215 0.63851,-1.248 0.67696,-1.56805 0.75984,-6.32459 0.0944,-5.41772 -0.0954,-6.801333 -1.15513,-8.419703 -1.35157,-2.0641 -4.52011,-3.05955 -6.92219,-2.17474 z"
       id="path1166"
       sodipodi:nodetypes="sssssssss" />
    <path
       style="fill:#642868;fill-opacity:1;stroke-width:0.264583"
       d="m 128.08915,95.594827 c -0.61097,0.22506 -1.59429,0.89262 -2.18514,1.48348 -1.6853,1.6853 -1.92948,2.91679 -1.81629,9.160163 0.0865,4.77149 0.1438,5.30175 0.68269,6.31781 1.12369,2.11869 3.76789,3.43968 6.2247,3.10973 1.79176,-0.24064 3.57313,-1.51347 4.41153,-3.15215 0.63851,-1.248 0.67696,-1.56805 0.75984,-6.32459 0.0944,-5.41772 -0.0954,-6.801333 -1.15513,-8.419703 -1.35157,-2.0641 -4.52011,-3.05955 -6.9222,-2.17474 z"
       id="path1172"
       sodipodi:nodetypes="sssssssss" />
    <path
       style="display:inline;fill:#00ffff;stroke-width:0.264583"
       d="m 104.13116,179.74069 c -6.223972,-0.64992 -13.046132,-2.63263 -18.931122,-5.5019 -10.82171,-5.27621 -18.63209,-12.71411 -24.78454,-23.60257 -2.45941,-4.35261 -16.33919,-30.52335 -17.2388,-32.50427 -0.897073,-2.68439 -0.746668,-5.83904 0.24633,-7.95003 1.00095,-2.11226 2.19303,-3.51071 3.9416,-4.62396 2.878642,-1.61095 4.650646,-1.63635 7.67291,-1.8458 l 0.1323,-24.606253 c 0.1316,-24.477669 0.13528,-24.613552 0.70532,-26.003574 2.61299,-6.371702 8.81781,-9.736552 14.98986,-8.128936 28.979245,16.537717 0,0 28.979245,16.537717 H 120.55861 L 148.1101,45.409908 c 3.30777,-1.136539 7.00605,-0.916553 9.51433,0.276796 3.21697,1.536161 5.50152,3.989039 6.90675,7.415629 l 0.83762,50.609827 2.31545,0.15837 c 4.25093,0.29076 7.4975,2.48346 9.26294,6.25614 1.09371,2.33718 1.28676,5.07249 0.51272,7.2647 -0.50572,1.43233 -14.91605,28.77663 -18.21016,34.55469 -7.75095,13.5956 -21.65438,23.59453 -37.41913,26.91076 -5.1329,1.07973 -12.36514,1.4409 -17.69946,0.88387 z m 13.21576,-9.12003 c 12.8485,-1.94248 24.59381,-9.10237 32.06729,-19.54809 3.06733,-4.2872 19.52645,-35.33459 19.52645,-36.83338 0,-1.43411 -0.33514,-1.51874 -6.5883,-1.66349 l -5.71481,-0.13229 -0.52919,-56.335862 c -0.39428,-1.911745 -2.60078,-3.069033 -4.65636,-2.442213 -1.05729,0.322406 -26.99555,15.582837 -28.0859,16.523977 l -26.326052,-0.0023 c -0.90494,-0.78564 0,0 -28.16091,-16.590172 -2.672252,-0.629718 -4.954452,1.771851 -4.85255,4.420141 l -0.2579,54.426459 -5.7765,0.13229 c -5.32776,0.12202 -5.80564,0.17219 -6.15156,0.64588 -0.20628,0.28248 -0.37506,0.80484 -0.37506,1.16082 0,0.8525 3.12855,7.04213 10.18029,20.14105 6.80973,12.64937 8.32839,15.25249 10.56517,18.10974 10.72951,13.70583 27.981222,20.58096 45.135792,17.98747 z"
       id="path74-4"
       sodipodi:nodetypes="sssccccsscccccccssssssssssccscccccsssssss" />
    <path
       style="display:inline;fill:#ff00ff;stroke-width:0.264583"
       d="m 97.781144,179.74069 c -6.22396,-0.64992 -13.04612,-2.63263 -18.93111,-5.5019 -10.82171,-5.27621 -18.63209,-12.71411 -24.78454,-23.60257 -2.45941,-4.35261 -16.33919,-30.52335 -17.2388,-32.50427 -0.897073,-2.68439 -0.746668,-5.83904 0.24633,-7.95003 1.00095,-2.11226 2.19303,-3.51071 3.9416,-4.62396 2.878642,-1.61095 4.650646,-1.63635 7.67291,-1.8458 l 0.1323,-24.606253 c 0.1316,-24.477669 0.13528,-24.613552 0.70532,-26.003574 2.61299,-6.371702 8.81781,-9.736552 14.98986,-8.128936 28.97925,16.537717 0,0 28.97925,16.537717 h 20.714306 l 27.55149,-16.101206 c 3.30777,-1.136539 7.00605,-0.916553 9.51433,0.276796 3.21697,1.536161 5.50152,3.989039 6.90675,7.415629 l 0.83762,50.609827 2.31545,0.15837 c 4.25093,0.29076 7.4975,2.48346 9.26294,6.25614 1.09371,2.33718 1.28676,5.07249 0.51272,7.2647 -0.50572,1.43233 -14.91605,28.77663 -18.21016,34.55469 -7.75095,13.5956 -21.65438,23.59453 -37.41913,26.91076 -5.1329,1.07973 -12.36512,1.4409 -17.699436,0.88387 z m 13.215736,-9.12003 c 12.8485,-1.94248 24.59381,-9.10237 32.06729,-19.54809 3.06733,-4.2872 19.52645,-35.33459 19.52645,-36.83338 0,-1.43411 -0.33514,-1.51874 -6.5883,-1.66349 l -5.71481,-0.13229 -0.52919,-56.335862 c -0.39428,-1.911745 -2.60078,-3.069033 -4.65636,-2.442213 -1.05729,0.322406 -26.99555,15.582837 -28.0859,16.523977 l -26.326016,-0.0023 c -0.90494,-0.78564 0,0 -28.16091,-16.590172 -2.672252,-0.629718 -4.954452,1.771851 -4.85255,4.420141 l -0.2579,54.426459 -5.7765,0.13229 c -5.32776,0.12202 -5.80564,0.17219 -6.15156,0.64588 -0.20628,0.28248 -0.37506,0.80484 -0.37506,1.16082 0,0.8525 3.12855,7.04213 10.18029,20.14105 6.80973,12.64937 8.32839,15.25249 10.56517,18.10974 10.72951,13.70583 27.98122,20.58096 45.135756,17.98747 z"
       id="path166"
       sodipodi:nodetypes="sssccccsscccccccssssssssssccscccccsssssss" />
    <path
       style="display:inline;fill:#ffff94;fill-opacity:1;stroke-width:0.264583"
       d="m 121.12677,70.509268 c -0.42365,0.36567 -0.46303,1.14655 -0.46303,9.183063 0,8.697839 -0.006,8.792119 -0.60161,9.676149 -1.03267,1.53238 -2.22121,2.16073 -3.84113,2.03069 -1.48516,-0.11923 -2.41753,-0.64536 -3.34611,-1.8882 -0.51944,-0.69521 -0.55185,-1.16252 -0.67781,-9.773239 l -0.13229,-9.043113 -3.57188,-0.0762 c -1.96453,-0.0419 -3.83975,-0.01 -4.16715,0.0712 l -0.59532,0.14738 v 8.819383 c 0,8.735239 -0.006,8.827899 -0.60161,9.712109 -1.89714,2.81516 -5.366297,2.81516 -7.263437,0 -0.59575,-0.88403 -0.60161,-0.97831 -0.60161,-9.676149 0,-8.035623 -0.0394,-8.817633 -0.46302,-9.185393 2.80417,-8.67587 23.518467,-8.67587 26.326007,0.0023 z m -14.91115,62.606242 c -0.68496,-0.33794 -9.533337,-10.40255 -10.237337,-11.64449 -0.1808,-0.31896 1.56115,-0.37327 11.972367,-0.37327 6.70119,0 12.18398,0.0683 12.18398,0.15176 0,0.0835 -2.15932,2.69696 -4.7985,5.80777 -2.99728,3.5329 -5.12277,5.80989 -5.66238,6.06595 -1.09013,0.5173 -2.39989,0.51438 -3.45813,-0.008 z"
       id="path1190"
       sodipodi:nodetypes="sscssscsccscssccsssssccss" />
    <path
       style="display:inline;fill:#ffff94;fill-opacity:1;stroke-width:0.264583"
       d="m 60.511978,77.224261 c 0.0847,0.24831 4.305458,2.9126 9.772808,6.18282 5.46736,3.270229 10.10743,6.183989 10.31128,6.475029 0.58485,0.83498 0.44796,1.82692 -0.35697,2.58673 -0.40018,0.37775 -5.01385,3.27342 -10.2526,6.43482 -5.23875,3.1614 -9.58453,5.80148 -9.65729,5.86684 z"
       id="path1192"
       sodipodi:nodetypes="csssscc" />
    <path
       style="display:inline;fill:#ffff94;fill-opacity:1;stroke-width:0.264583"
       d="m 154.34734,78.197501 c -0.0847,0.24831 -4.62721,3.1271 -10.09456,6.39732 -5.46736,3.270229 -10.10743,6.183989 -10.31128,6.475029 -0.58485,0.83498 -0.44796,1.82692 0.35697,2.58673 0.40018,0.37775 5.01385,3.27342 10.2526,6.43482 5.23875,3.1614 9.58453,5.80148 9.65729,5.86684 0.13898,-27.760739 0,0 0.13898,-27.760739 z"
       id="path1194"
       sodipodi:nodetypes="csssscc" />
    <path
       style="display:inline;fill:#f0c4a9;fill-opacity:1;stroke-width:0.264583"
       d="m 120.5976,69.450934 c -0.42365,0.36567 -0.46303,1.14655 -0.46303,9.183063 0,8.69783 -0.006,8.79211 -0.60161,9.67614 -1.03267,1.53238 -2.22121,2.16073 -3.84113,2.03069 -1.48516,-0.11923 -2.41753,-0.64536 -3.34611,-1.8882 -0.51944,-0.69521 -0.55185,-1.16252 -0.67781,-9.77323 l -0.13229,-9.043113 -3.57188,-0.0762 c -1.96452,-0.0419 -3.83974,-0.01 -4.16715,0.0712 l -0.59532,0.14738 v 8.819383 c 0,8.73523 -0.006,8.82789 -0.60161,9.7121 -1.89714,2.81516 -5.366294,2.81516 -7.263434,0 -0.59575,-0.88403 -0.60161,-0.97831 -0.60161,-9.67614 0,-8.035623 -0.0394,-8.817633 -0.46302,-9.185393 2.80417,-8.67587 23.518464,-8.67587 26.326004,0.0023 z m -14.91114,62.606236 c -0.68496,-0.33794 -9.533344,-10.40255 -10.237344,-11.64449 -0.1808,-0.31896 1.56115,-0.37327 11.972364,-0.37327 6.70119,0 12.18398,0.0683 12.18398,0.15176 0,0.0835 -2.15932,2.69696 -4.7985,5.80777 -2.99728,3.5329 -5.12277,5.80989 -5.66238,6.06595 -1.09013,0.5173 -2.39988,0.51438 -3.45812,-0.008 z"
       id="path74"
       sodipodi:nodetypes="sscssscsccscssccsssssccss" />
    <path
       style="display:inline;fill:#f0c4a9;fill-opacity:1;stroke-width:0.264583"
       d="m 59.982811,76.165927 c 0.0847,0.24831 4.305458,2.9126 9.772808,6.18282 5.46736,3.27022 10.10743,6.18398 10.31128,6.47502 0.58485,0.83498 0.44796,1.82692 -0.35697,2.58673 -0.40018,0.37775 -5.01385,3.27342 -10.2526,6.43482 -5.23875,3.161403 -9.58453,5.801483 -9.65729,5.866843 z"
       id="path74-8"
       sodipodi:nodetypes="csssscc" />
    <path
       style="display:inline;fill:#f0c4a9;fill-opacity:1;stroke-width:0.264583"
       d="m 153.81817,77.139167 c -0.0847,0.24831 -4.62721,3.1271 -10.09456,6.39732 -5.46736,3.27022 -10.10743,6.18398 -10.31128,6.47502 -0.58485,0.83498 -0.44796,1.82692 0.35697,2.58673 0.40018,0.37775 5.01385,3.27342 10.2526,6.43482 5.23875,3.161403 9.58453,5.801483 9.65729,5.866843 0.13898,-27.760733 0,0 0.13898,-27.760733 z"
       id="path74-8-5"
       sodipodi:nodetypes="csssscc" />
    <g
       id="g1144"
       transform="translate(6.967233,-27.495663)"
       style="display:inline">
      <path
         style="fill:none;fill-opacity:1;stroke-width:0.264583"
         d="m 74.555218,123.09049 c -0.610973,0.22506 -1.594292,0.89262 -2.185148,1.48348 -1.685298,1.6853 -1.92948,2.91679 -1.816288,9.16016 0.08651,4.77149 0.143806,5.30175 0.682694,6.31781 1.12369,2.11869 3.767891,3.43968 6.224695,3.10973 1.791766,-0.24064 3.573137,-1.51347 4.41153,-3.15215 0.638511,-1.248 0.676963,-1.56805 0.759841,-6.32459 0.0944,-5.41772 -0.09542,-6.80133 -1.155131,-8.4197 -1.351568,-2.0641 -4.520107,-3.05955 -6.922193,-2.17474 z m 46.721082,-0.0703 c -1.50294,0.56191 -2.44588,1.03845 -3.70837,3.06477 l -0.36227,0.95163 v 5.95312 c 0,5.68802 0.0268,6.00336 0.6025,7.08115 1.22034,2.28477 4.13108,3.58295 6.66866,2.97419 1.71638,-0.41175 3.27985,-1.56488 4.03259,-2.97419 0.57585,-1.07812 0.6025,-1.39229 0.6025,-7.1019 v -5.97387 c 0,-0.25378 -0.80074,-1.29517 -0.80074,-1.29517 -1.47558,-2.3867 -4.6175,-3.58351 -7.03487,-2.67973 z"
         id="path1142"
         sodipodi:nodetypes="ssssssssssccscssszss" />
    </g>
    <g
       id="g1186"
       transform="translate(53.533926,-27.495663)"
       style="display:inline">
      <path
         style="fill:none;fill-opacity:1;stroke-width:0.264583"
         d="m 74.555218,123.09049 c -0.610973,0.22506 -1.594292,0.89262 -2.185148,1.48348 -1.685298,1.6853 -1.92948,2.91679 -1.816288,9.16016 0.08651,4.77149 0.143806,5.30175 0.682694,6.31781 1.12369,2.11869 3.767891,3.43968 6.224695,3.10973 1.791766,-0.24064 3.573137,-1.51347 4.41153,-3.15215 0.638511,-1.248 0.676963,-1.56805 0.759841,-6.32459 0.0944,-5.41772 -0.09542,-6.80133 -1.155131,-8.4197 -1.351568,-2.0641 -4.520107,-3.05955 -6.922193,-2.17474 z m 46.721082,-0.0703 c -1.50294,0.56191 -2.44588,1.03845 -3.70837,3.06477 l -0.36227,0.95163 v 5.95312 c 0,5.68802 0.0268,6.00336 0.6025,7.08115 1.22034,2.28477 4.13108,3.58295 6.66866,2.97419 1.71638,-0.41175 3.27985,-1.56488 4.03259,-2.97419 0.57585,-1.07812 0.6025,-1.39229 0.6025,-7.1019 v -5.97387 c 0,-0.25378 -0.80074,-1.29517 -0.80074,-1.29517 -1.47558,-2.3867 -4.6175,-3.58351 -7.03487,-2.67973 z"
         id="path1184"
         sodipodi:nodetypes="ssssssssssccscssszss" />
    </g>
    <path
       style="fill:#642868;fill-opacity:1;stroke-width:0.264583"
       d="m 100.95615,179.74069 c -6.223964,-0.64992 -13.046124,-2.63263 -18.931114,-5.5019 -10.82171,-5.27621 -18.63209,-12.71411 -24.78454,-23.60257 -2.45941,-4.35261 -16.33919,-30.52335 -17.2388,-32.50427 -0.897073,-2.68439 -0.746668,-5.83904 0.24633,-7.95003 1.00095,-2.11226 2.19303,-3.51071 3.9416,-4.62396 2.878642,-1.61095 4.650646,-1.63635 7.67291,-1.8458 l 0.1323,-24.606253 c 0.1316,-24.477669 0.13528,-24.613552 0.70532,-26.003574 2.61299,-6.371702 8.81781,-9.736552 14.98986,-8.128936 28.97925,16.537717 0,0 28.97925,16.537717 h 20.714324 l 27.55149,-16.101206 c 3.30777,-1.136539 7.00605,-0.916553 9.51433,0.276796 3.21697,1.536161 5.50152,3.989039 6.90675,7.415629 l 0.83762,50.609827 2.31545,0.15837 c 4.25093,0.29076 7.4975,2.48346 9.26294,6.25614 1.09371,2.33718 1.28676,5.07249 0.51272,7.2647 -0.50572,1.43233 -14.91605,28.77663 -18.21016,34.55469 -7.75095,13.5956 -21.65438,23.59453 -37.41913,26.91076 -5.1329,1.07973 -12.36514,1.4409 -17.69945,0.88387 z m 13.21575,-9.12003 c 12.8485,-1.94248 24.59381,-9.10237 32.06729,-19.54809 3.06733,-4.2872 19.52645,-35.33459 19.52645,-36.83338 0,-1.43411 -0.33514,-1.51874 -6.5883,-1.66349 l -5.71481,-0.13229 -0.52919,-56.335862 c -0.39428,-1.911745 -2.60078,-3.069033 -4.65636,-2.442213 -1.05729,0.322406 -26.99555,15.582837 -28.0859,16.523977 l -26.326034,-0.0023 c -0.90494,-0.78564 0,0 -28.16091,-16.590172 -2.672252,-0.629718 -4.954452,1.771851 -4.85255,4.420141 l -0.2579,54.426459 -5.7765,0.13229 c -5.32776,0.12202 -5.80564,0.17219 -6.15156,0.64588 -0.20628,0.28248 -0.37506,0.80484 -0.37506,1.16082 0,0.8525 3.12855,7.04213 10.18029,20.14105 6.80973,12.64937 8.32839,15.25249 10.56517,18.10974 10.72951,13.70583 27.98122,20.58096 45.135774,17.98747 z"
       id="path1081"
       sodipodi:nodetypes="sssccccsscccccccssssssssssccscccccsssssss" />
  </g>
</svg>
